<?xml version="1.0" encoding="UTF-8"?>
<svg id="Layer_1" data-name="Layer 1" xmlns="http://www.w3.org/2000/svg" viewBox="0 0 1024 430.78">
  <defs>
    <style>
      .cls-1 {
        fill: #fff;
      }
    </style>
  </defs>
  <g>
    <path class="cls-1" d="M412.81,237.63c-.92.85-1.99,1.28-3.21,1.28-1.31,0-2.39-.42-3.24-1.28-.85-.85-1.28-1.91-1.28-3.17v-42.13c0-1.26.44-2.32,1.31-3.17.88-.85,1.99-1.28,3.35-1.28,1.21,0,2.26.43,3.13,1.28.88.85,1.31,1.91,1.31,3.17v42.13c0,1.26-.46,2.32-1.39,3.17Z"/>
    <path class="cls-1" d="M478.35,189.04c.73.78,1.09,1.75,1.09,2.92v42.5c0,1.26-.43,2.32-1.28,3.17-.85.85-1.91,1.28-3.17,1.28-.68,0-1.35-.11-2-.33-.66-.22-1.13-.52-1.42-.91l-26.75-33.97v31.13c0,1.17-.38,2.14-1.13,2.92-.75.78-1.74,1.17-2.95,1.17s-2.11-.39-2.84-1.17c-.73-.78-1.09-1.75-1.09-2.92v-42.5c0-1.26.42-2.32,1.28-3.17.85-.85,1.91-1.28,3.17-1.28.73,0,1.45.15,2.15.44.7.29,1.23.68,1.57,1.17l26.53,33.82v-31.34c0-1.17.38-2.14,1.13-2.92.75-.78,1.71-1.17,2.88-1.17s2.11.39,2.84,1.17Z"/>
    <path class="cls-1" d="M545.77,226.62c-2.14,4.01-5.09,7.18-8.86,9.51-3.77,2.33-8.01,3.5-12.72,3.5s-8.96-1.17-12.72-3.5c-3.77-2.33-6.71-5.5-8.82-9.51-2.11-4.01-3.17-8.42-3.17-13.23s1.06-9.22,3.17-13.23c2.11-4.01,5.05-7.18,8.82-9.51,3.76-2.33,8-3.5,12.72-3.5s8.95,1.17,12.72,3.5c3.77,2.33,6.72,5.5,8.86,9.51,2.14,4.01,3.21,8.42,3.21,13.23s-1.07,9.22-3.21,13.23ZM537.53,204.53c-1.31-2.65-3.13-4.75-5.47-6.31-2.33-1.55-4.96-2.33-7.87-2.33s-5.6.77-7.91,2.3c-2.31,1.53-4.11,3.63-5.39,6.3-1.29,2.67-1.93,5.64-1.93,8.89s.64,6.22,1.93,8.89c1.29,2.67,3.09,4.77,5.39,6.31,2.31,1.53,4.94,2.3,7.91,2.3s5.54-.78,7.87-2.33c2.33-1.55,4.16-3.66,5.47-6.3,1.31-2.65,1.97-5.6,1.97-8.86s-.66-6.21-1.97-8.86Z"/>
    <path class="cls-1" d="M608.64,188.97c.9.83,1.35,1.82,1.35,2.99,0,.63-.15,1.29-.44,1.97l-18,42.13c-.44.92-1.05,1.63-1.82,2.11-.78.49-1.6.73-2.48.73-.83-.05-1.59-.3-2.3-.77-.71-.46-1.25-1.13-1.64-2l-18-42.28c-.24-.48-.37-1.09-.37-1.82,0-1.31.49-2.37,1.46-3.17.97-.8,1.97-1.2,2.99-1.2.83,0,1.6.24,2.33.73.73.49,1.29,1.19,1.68,2.11l14.65,34.48,13.41-34.48c.39-.88.95-1.55,1.68-2.04.73-.49,1.51-.73,2.33-.73,1.21,0,2.27.41,3.17,1.24Z"/>
    <path class="cls-1" d="M667.21,234.97c0,1.26-.41,2.3-1.24,3.1-.83.8-1.78,1.2-2.84,1.2-.87,0-1.67-.27-2.37-.8-.71-.53-1.25-1.26-1.64-2.19l-3.79-8.82h-21.72l-3.79,8.89c-.34.92-.86,1.64-1.57,2.15-.71.51-1.47.77-2.3.77-1.26,0-2.22-.34-2.88-1.02s-.98-1.6-.98-2.77c0-.44.07-.9.22-1.39l18.15-43.59c.39-.97.97-1.72,1.75-2.26.78-.53,1.65-.75,2.62-.66.88,0,1.69.25,2.44.77.75.51,1.3,1.23,1.64,2.15l17.93,42.72c.24.63.36,1.21.36,1.75ZM637.18,219.08h14.58l-7.36-17.06-7.22,17.06Z"/>
    <path class="cls-1" d="M723.12,232.2c.58.78.88,1.68.88,2.7,0,1.26-.46,2.31-1.39,3.13-.92.83-1.92,1.24-2.99,1.24-1.41,0-2.6-.63-3.57-1.9l-12.98-17.28-12.61,17.13c-.97,1.36-2.19,2.04-3.64,2.04-1.07,0-1.99-.39-2.77-1.17s-1.17-1.68-1.17-2.7.36-2.07,1.09-2.99l14.07-19.03-14.07-18.66c-.63-.78-.95-1.65-.95-2.62,0-1.21.46-2.26,1.38-3.13.92-.87,1.94-1.31,3.06-1.31,1.41,0,2.6.63,3.57,1.89l12.83,17.06,12.54-16.69c.49-.68,1.04-1.2,1.68-1.57.63-.36,1.26-.55,1.89-.55,1.07,0,2.02.43,2.84,1.28.83.85,1.24,1.79,1.24,2.81,0,.92-.32,1.8-.95,2.62l-14.21,18.73,14.21,18.95Z"/>
    <path class="cls-1" d="M752.2,237.63c-.92.85-1.99,1.28-3.21,1.28-1.31,0-2.39-.42-3.24-1.28-.85-.85-1.28-1.91-1.28-3.17v-42.13c0-1.26.44-2.32,1.31-3.17.88-.85,1.99-1.28,3.35-1.28,1.21,0,2.26.43,3.13,1.28.88.85,1.31,1.91,1.31,3.17v42.13c0,1.26-.46,2.32-1.39,3.17Z"/>
    <path class="cls-1" d="M819.92,226.62c-2.14,4.01-5.09,7.18-8.86,9.51-3.77,2.33-8.01,3.5-12.72,3.5s-8.96-1.17-12.72-3.5c-3.77-2.33-6.71-5.5-8.82-9.51-2.11-4.01-3.17-8.42-3.17-13.23s1.06-9.22,3.17-13.23c2.11-4.01,5.05-7.18,8.82-9.51,3.76-2.33,8-3.5,12.72-3.5s8.95,1.17,12.72,3.5c3.77,2.33,6.72,5.5,8.86,9.51,2.14,4.01,3.21,8.42,3.21,13.23s-1.07,9.22-3.21,13.23ZM811.69,204.53c-1.31-2.65-3.13-4.75-5.47-6.31-2.33-1.55-4.96-2.33-7.87-2.33s-5.6.77-7.91,2.3c-2.31,1.53-4.11,3.63-5.39,6.3-1.29,2.67-1.93,5.64-1.93,8.89s.64,6.22,1.93,8.89c1.29,2.67,3.09,4.77,5.39,6.31,2.31,1.53,4.94,2.3,7.91,2.3s5.54-.78,7.87-2.33c2.33-1.55,4.16-3.66,5.47-6.3,1.31-2.65,1.97-5.6,1.97-8.86s-.66-6.21-1.97-8.86Z"/>
  </g>
  <g>
    <g>
      <rect class="cls-1" x="225.43" y="210.64" width="101.88" height="23.46" rx="11.73" ry="11.73" transform="translate(-70.6 296.13) rotate(-50.82)"/>
      <path class="cls-1" d="M207.35,250.55c.01,6.46-5.22,11.71-11.67,11.72h-.06c-3.59,0-6.8-1.6-8.94-4.14-1.73-2.04-2.77-4.67-2.78-7.54l-.08-51.36c3.31,2.46,7.42,3.92,11.86,3.92s8.34-1.38,11.61-3.74l.02,18.73.06,32.41Z"/>
      <rect class="cls-1" x="166.8" y="202.67" width="117.35" height="23.46" rx="11.73" ry="11.73" transform="translate(-83.16 253.75) rotate(-50.82)"/>
      <path class="cls-1" d="M329.75,166.51c-14.77,0-28,6.66-36.86,17.12-.01,0-.02.02-.03.03-7.13,8.42-11.42,19.29-11.42,31.15,0,5.75,1.01,11.27,2.86,16.38,6.73,18.59,24.55,31.92,45.44,31.92,26.63,0,48.3-21.67,48.3-48.3s-21.67-48.3-48.3-48.3ZM329.75,239.65c-13.69,0-24.83-11.14-24.83-24.83s11.14-24.83,24.83-24.83,24.83,11.14,24.83,24.83-11.14,24.83-24.83,24.83Z"/>
      <path class="cls-1" d="M207.5,178.34c0,.83-.08,1.65-.25,2.43-1.12,5.37-5.88,9.4-11.58,9.4-6.54,0-11.83-5.3-11.83-11.83s5.3-11.83,11.83-11.83c2.61,0,5.02.84,6.97,2.27,2.95,2.15,4.86,5.63,4.86,9.56Z"/>
    </g>
    <circle class="cls-1" cx="329.61" cy="214.81" r="11.42"/>
  </g>
</svg>